<svg id="emoji" viewBox="0 0 72 72" xmlns="http://www.w3.org/2000/svg">
  <g id="color">
    <circle cx="36" cy="36" r="24" fill="#fcea2b"/>
    <path fill="#fff" d="M50.595,41.64a11.5554,11.5554,0,0,1-.87,4.49c-12.49,3.03-25.43.34-27.49-.13a11.4347,11.4347,0,0,1-.83-4.36h.11s14.8,3.59,28.89.07Z"/>
    <path fill="#ea5a47" d="M49.7251,46.13c-1.79,4.27-6.35,7.23-13.69,7.23-7.41,0-12.03-3.03-13.8-7.36C24.2951,46.47,37.235,49.16,49.7251,46.13Z"/>
    <path fill="#92d3f5" d="m 57.72087,43.569831 a 3.4952578,3.4952578 0 0 1 -4.944845,8.24e-4 c -2.448773,-2.448691 -2.476872,-7.383895 -2.477201,-7.433171 0.190674,0.0108 4.98588,0.0515 7.422046,2.487667 a 3.494681,3.494681 0 0 1 0,4.94468 z"/>
    <path fill="#92d3f5" d="m 14.2392,43.3385 a 3.4385903,3.4385903 0 0 1 -8.92e-4,-4.864527 c 2.408878,-2.408878 7.263921,-2.436601 7.312314,-2.436925 -0.01062,0.187574 -0.05066,4.904895 -2.447219,7.301452 a 3.4379418,3.4379418 0 0 1 -4.864203,0 z"/>
  </g>
  <g id="hair"/>
  <g id="skin"/>
  <g id="skin-shadow"/>
  <g id="line">
    <circle cx="36" cy="36" r="24" fill="none" stroke="#000" stroke-width="2" />
    <path fill="none" stroke="#000" stroke-linecap="round" stroke-linejoin="round" stroke-width="2" d="M20.6948,28.2a6.3062,6.3062,0,0,1,3.3907-3,6.3038,6.3038,0,0,1,4.53-.4209"/>
    <path fill="none" stroke="#000" stroke-linecap="round" stroke-linejoin="round" stroke-width="2" d="M51.3052,28.2A7.19,7.19,0,0,0,43.396,24.77"/>
    <path fill="none" stroke="#000" stroke-linecap="round" stroke-linejoin="round" stroke-width="2" d="M50.595,41.64a11.5554,11.5554,0,0,1-.87,4.49c-12.49,3.03-25.43.34-27.49-.13a11.4347,11.4347,0,0,1-.83-4.36h.11s14.8,3.59,28.89.07Z"/>
    <path fill="none" stroke="#000" stroke-linecap="round" stroke-linejoin="round" stroke-width="2" d="M49.7251,46.13c-1.79,4.27-6.35,7.23-13.69,7.23-7.41,0-12.03-3.03-13.8-7.36C24.2951,46.47,37.235,49.16,49.7251,46.13Z"/>
    <path fill="none" stroke="#000" stroke-linejoin="round" stroke-width="2" d="m 57.72087,43.569831 a 3.4952578,3.4952578 0 0 1 -4.944845,8.24e-4 c -2.448773,-2.448691 -2.476872,-7.383895 -2.477201,-7.433171 0.190674,0.0108 4.98588,0.0515 7.422046,2.487667 a 3.494681,3.494681 0 0 1 0,4.94468 z"/>
    <path fill="none" stroke="#000" stroke-linejoin="round" stroke-width="2" d="m 14.2392,43.3385 a 3.4385903,3.4385903 0 0 1 -8.92e-4,-4.864527 c 2.408878,-2.408878 7.263921,-2.436601 7.312314,-2.436925 -0.01062,0.187574 -0.05066,4.904895 -2.447219,7.301452 a 3.4379418,3.4379418 0 0 1 -4.864203,0 z"/>
    <path fill="none" stroke="#000" stroke-linecap="round" stroke-miterlimit="10" stroke-width="2" d="M31.6941,35.1642a4.7263,4.7263,0,0,0-8.6382,0"/>
    <path fill="none" stroke="#000" stroke-linecap="round" stroke-miterlimit="10" stroke-width="2" d="M48.9441,35.1642a4.7263,4.7263,0,0,0-8.6382,0"/>
  </g>
</svg>
