<svg id="emoji" viewBox="0 0 72 72" xmlns="http://www.w3.org/2000/svg">
<defs>
    <linearGradient id="yellow-gradient" x1="0%" y1="0%" x2="0%" y2="100%">
      <stop style="stop-color:#FDE02F;stop-opacity:1;" offset="0%" />
      <stop style="stop-color:#F7B209;stop-opacity:1;" offset="100%" />
    </linearGradient>
  </defs>
  <g id="color">
    <rect x="5" y="17" width="62" height="38" fill="#fff"/>
    <polygon fill="#d22f27" stroke="#d22f27" stroke-miterlimit="10" stroke-width="2" points="67 33 39 33 39 17 33 17 33 33 5 33 5 39 33 39 33 55 39 55 39 39 67 39 67 33"/>
    <polygon fill="url(#yellow-gradient)" stroke="url(#yellow-gradient)" stroke-linejoin="round" points="49.958 34.684 37.316 34.684 37.316 22 34.684 22 34.684 34.684 22.042 34.684 22.042 37.316 34.684 37.316 34.684 50 37.316 50 37.316 37.316 49.958 37.316 49.958 34.684"/>
  </g>
  <g id="line">
    <rect x="5" y="17" width="62" height="38" fill="none" stroke="#000" stroke-linecap="round" stroke-linejoin="round" stroke-width="2"/>
  </g>
</svg>
