<svg id="emoji" viewBox="6 6 60 60" xmlns="http://www.w3.org/2000/svg">
<defs>
    <linearGradient id="yellow-gradient" x1="0%" y1="0%" x2="0%" y2="100%">
      <stop style="stop-color:#FDE02F;stop-opacity:1;" offset="0%" />
      <stop style="stop-color:#F7B209;stop-opacity:1;" offset="100%" />
    </linearGradient>
  </defs>
  <g id="color">
    <path fill="url(#yellow-gradient)" d="M49.4515,44.8757a1.5009,1.5009,0,0,0,0-3,1.5009,1.5009,0,0,0,0,3Z"/>
    <path fill="url(#yellow-gradient)" stroke="url(#yellow-gradient)" stroke-linecap="round" stroke-linejoin="round" stroke-width="2" d="M64,36A28,28,0,0,0,36,8V64A28,28,0,0,0,64,36Z"/>
    <path fill="#3f3f3f" stroke="#3f3f3f" stroke-linecap="round" stroke-linejoin="round" stroke-width="2" d="M8,36A28,28,0,0,0,36,64V8A28,28,0,0,0,8,36Z"/>
  </g>
  <g id="line">
    <circle cx="36" cy="36" r="28" fill="none" stroke="#000" stroke-linecap="round" stroke-linejoin="round" stroke-width="2"/>
    <path fill="none" stroke="#000" stroke-linecap="round" stroke-linejoin="round" stroke-width="2" d="M64,36A28,28,0,0,0,36,8V64A28,28,0,0,0,64,36Z"/>
  </g>
</svg>
