<svg id="emoji" viewBox="12 12 48 48" xmlns="http://www.w3.org/2000/svg">
<defs>
    <linearGradient id="yellow-gradient" x1="0%" y1="0%" x2="0%" y2="100%">
      <stop style="stop-color:#FDE02F;stop-opacity:1;" offset="0%" />
      <stop style="stop-color:#F7B209;stop-opacity:1;" offset="100%" />
    </linearGradient>
  </defs>
  <g id="color">
    <path fill="#FFA7C0" stroke="none" d="M30,31c0,0-2,23,7,26s14-34,6-34c-6.2075,0-7-1-11.7099-0.3422C29.9197,22.8491,27.9837,22.7602,26,24 c-8,5,5,29,8,31"/>
    <path fill="#E67A94" stroke="none" d="M42,22c0,0,1-3-2-3s-7,0-7,0s-2.1402-0.4205-1,3"/>
    <path fill="#FFA7C0" stroke="none" d="M34,18c3.2-5.3333,5.1333,0.3333,5,0"/>
  </g>
  <g id="hair"/>
  <g id="skin"/>
  <g id="skin-shadow"/>
  <g id="line">
    <path fill="none" stroke="#000000" stroke-linecap="round" stroke-linejoin="round" stroke-miterlimit="10" stroke-width="2" d="M30,31c0,0-2,23,7,26s14-34,6-34c-6.2075,0-7-1-11.7099-0.3422C29.9197,22.8491,27.9837,22.7602,26,24c-8,5,5,29,8,31"/>
    <path fill="none" stroke="#000000" stroke-linecap="round" stroke-linejoin="round" stroke-miterlimit="10" stroke-width="2" d="M42,22c0,0,1-3-2-3s-7,0-7,0s-2.1402-0.4205-1,3"/>
    <path fill="none" stroke="#000000" stroke-linecap="round" stroke-linejoin="round" stroke-miterlimit="10" stroke-width="2" d="M34,18c3.2-5.3333,5.1333,0.3333,5,0"/>
  </g>
</svg>
