<svg id="emoji" viewBox="11 11 50 50" xmlns="http://www.w3.org/2000/svg">
<defs>
    <linearGradient id="yellow-gradient" x1="0%" y1="0%" x2="0%" y2="100%">
      <stop style="stop-color:#FDE02F;stop-opacity:1;" offset="0%" />
      <stop style="stop-color:#F7B209;stop-opacity:1;" offset="100%" />
    </linearGradient>
  </defs>
  <g id="color">
    <circle cx="36" cy="36" r="23" fill="url(#yellow-gradient)"/>
  </g>
  <g id="hair"/>
  <g id="skin"/>
  <g id="skin-shadow"/>
  <g id="line">
    <circle cx="36" cy="36" r="23" fill="none" stroke="#000000" stroke-linecap="round" stroke-linejoin="round" stroke-miterlimit="10" stroke-width="2"/>
    <path fill="none" stroke="#000000" stroke-linecap="round" stroke-linejoin="round" stroke-miterlimit="10" stroke-width="2" d="M45.8147,44.8055c-5.8513,4.7083-14.1004,4.6878-19.6295,0"/>
    <path fill="none" stroke="#000000" stroke-linecap="round" stroke-miterlimit="10" stroke-width="2" d="M40.3059,30.5952 c1.0598,2.3854,3.8527,3.46,6.238,2.4002c1.0697-0.4752,1.9249-1.3305,2.4002-2.4002"/>
    <path fill="none" stroke="#000000" stroke-linecap="round" stroke-miterlimit="10" stroke-width="2" d="M23.0559,30.5952 c1.0598,2.3854,3.8527,3.46,6.238,2.4002c1.0697-0.4752,1.9249-1.3305,2.4002-2.4002"/>
    <path fill="none" stroke="#000000" stroke-linecap="round" stroke-linejoin="round" stroke-miterlimit="10" stroke-width="2" d="M21.8487,27.1448c0.846-1.6267,2.2631-2.8809,3.9804-3.5217c1.6496-0.822,3.5458-0.9962,5.3181-0.4941"/>
    <path fill="none" stroke="#000000" stroke-linecap="round" stroke-linejoin="round" stroke-miterlimit="10" stroke-width="2" d="M51.7827,27.1448c-1.8571-3.2546-5.6391-4.8951-9.2847-4.0272"/>
  </g>
</svg>
