<svg id="emoji" viewBox="6 6 60 60" xmlns="http://www.w3.org/2000/svg">
<defs>
    <linearGradient id="yellow-gradient" x1="0%" y1="0%" x2="0%" y2="100%">
      <stop style="stop-color:#FDE02F;stop-opacity:1;" offset="0%" />
      <stop style="stop-color:#F7B209;stop-opacity:1;" offset="100%" />
    </linearGradient>
  </defs>
  <g id="color">
    <circle cx="36" cy="36" r="29" fill="#3f3f3f"/>
    <path fill="#d0cfce" d="M24.83,14H47.1695A7.2305,7.2305,0,0,1,54.4,21.2305V47.5A1.5,1.5,0,0,1,52.9,49H19.1a1.5,1.5,0,0,1-1.5-1.5V21.23A7.23,7.23,0,0,1,24.83,14Z"/>
    <rect x="42" y="39" width="9" height="5" fill="url(#yellow-gradient)"/>
    <rect x="20" y="39" width="9" height="5" fill="url(#yellow-gradient)"/>
    <line x1="51" x2="21" y1="35" y2="35" fill="none" stroke="#ea5a47" stroke-linecap="round" stroke-linejoin="round" stroke-width="2"/>
    <line x1="17" x2="21" y1="60.8113" y2="54" fill="none" stroke="#fff" stroke-linecap="round" stroke-miterlimit="10" stroke-width="4"/>
    <line x1="55" x2="51" y1="60.8113" y2="54" fill="none" stroke="#fff" stroke-linecap="round" stroke-miterlimit="10" stroke-width="4"/>
    <rect x="20" y="22" width="31" height="10" fill="#3f3f3f"/>
  </g>
  <g id="line">
    <path fill="none" stroke="#000" stroke-linecap="round" stroke-linejoin="round" stroke-width="2" d="M24.83,14H47.1695A7.2305,7.2305,0,0,1,54.4,21.2305V47.5A1.5,1.5,0,0,1,52.9,49H19.1a1.5,1.5,0,0,1-1.5-1.5V21.23A7.23,7.23,0,0,1,24.83,14Z"/>
    <path fill="none" stroke="#000" stroke-linecap="round" stroke-linejoin="round" stroke-width="2" d="M51,23v8.8H21"/>
    <polyline fill="none" stroke="#000" stroke-linecap="round" stroke-linejoin="round" stroke-width="2" points="21 44 29 44 29 40"/>
    <polyline fill="none" stroke="#000" stroke-linecap="round" stroke-linejoin="round" stroke-width="2" points="43 44 51 44 51 40"/>
  </g>
</svg>
