<svg id="emoji" viewBox="9 9 54 54" xmlns="http://www.w3.org/2000/svg">
<defs>
    <linearGradient id="yellow-gradient" x1="0%" y1="0%" x2="0%" y2="100%">
      <stop style="stop-color:#FDE02F;stop-opacity:1;" offset="0%" />
      <stop style="stop-color:#F7B209;stop-opacity:1;" offset="100%" />
    </linearGradient>
  </defs>
  <g id="color">
    <path fill="#d0cfce" stroke="none" d="M47,15.82v36c0,3.85-3.15,7-7,7h-8c-3.85,0-7-3.15-7-7v-36c0-3.85,3.15-7,7-7h8 C43.85,8.82,47,11.97,47,15.82z"/>
    <circle cx="36" cy="48.2923" r="5" fill="#b1cc33" stroke="none"/>
    <circle cx="36" cy="34.2923" r="5" fill="#f4aa41" stroke="none"/>
    <circle cx="36" cy="19.2923" r="5" fill="#ea5a47" stroke="none"/>
  </g>
  <g id="hair"/>
  <g id="skin"/>
  <g id="skin-shadow"/>
  <g id="line">
    <path fill="none" stroke="#000000" stroke-linecap="round" stroke-linejoin="round" stroke-miterlimit="10" stroke-width="2" d="M47,16v36c0,3.85-3.15,7-7,7h-8c-3.85,0-7-3.15-7-7V16c0-3.85,3.15-7,7-7h8C43.85,9,47,12.15,47,16z"/>
    <circle cx="36" cy="48.4723" r="5" fill="none" stroke="#000000" stroke-linecap="round" stroke-linejoin="round" stroke-miterlimit="10" stroke-width="2"/>
    <circle cx="36" cy="34.4723" r="5" fill="none" stroke="#000000" stroke-linecap="round" stroke-linejoin="round" stroke-miterlimit="10" stroke-width="2"/>
    <circle cx="36" cy="19.4723" r="5" fill="none" stroke="#000000" stroke-linecap="round" stroke-linejoin="round" stroke-miterlimit="10" stroke-width="2"/>
  </g>
</svg>
