<svg id="emoji" viewBox="7 7 58 58" xmlns="http://www.w3.org/2000/svg">
<defs>
    <linearGradient id="yellow-gradient" x1="0%" y1="0%" x2="0%" y2="100%">
      <stop style="stop-color:#FDE02F;stop-opacity:1;" offset="0%" />
      <stop style="stop-color:#F7B209;stop-opacity:1;" offset="100%" />
    </linearGradient>
  </defs>
  <g id="color">
    <ellipse cx="26.6691" cy="59.4355" rx="3" ry="3.0228" fill="#d22f27"/>
    <path fill="#d22f27" d="M26.5691,49.964a2.4852,2.4852,0,0,1-2.5-2.519V11.9773a2.5,2.5,0,1,1,5,0V47.445A2.4852,2.4852,0,0,1,26.5691,49.964Z"/>
    <ellipse cx="45.3309" cy="59.4355" rx="3" ry="3.0228" fill="#d22f27"/>
    <path fill="#d22f27" d="M45.2309,49.964a2.4852,2.4852,0,0,1-2.5-2.519V11.9773a2.5,2.5,0,1,1,5,0V47.445A2.4852,2.4852,0,0,1,45.2309,49.964Z"/>
  </g>
  <g id="line">
    <ellipse cx="26.6691" cy="60.081" rx="3" ry="3.0228" fill="none" stroke="#000" stroke-linecap="round" stroke-linejoin="round" stroke-width="2"/>
    <ellipse cx="45.3309" cy="60.081" rx="3" ry="3.0228" fill="none" stroke="#000" stroke-linecap="round" stroke-linejoin="round" stroke-width="2"/>
    <path fill="none" stroke="#000" stroke-linecap="round" stroke-linejoin="round" stroke-width="2" d="M26.6691,49.964a2.4852,2.4852,0,0,1-2.5-2.519V11.9773a2.5,2.5,0,1,1,5,0V47.445A2.4852,2.4852,0,0,1,26.6691,49.964Z"/>
    <path fill="none" stroke="#000" stroke-linecap="round" stroke-linejoin="round" stroke-width="2" d="M45.3309,49.964a2.4852,2.4852,0,0,1-2.5-2.519V11.9773a2.5,2.5,0,1,1,5,0V47.445A2.4852,2.4852,0,0,1,45.3309,49.964Z"/>
  </g>
</svg>
