<svg id="emoji" viewBox="10 10 52 52" xmlns="http://www.w3.org/2000/svg">
<defs>
    <linearGradient id="yellow-gradient" x1="0%" y1="0%" x2="0%" y2="100%">
      <stop style="stop-color:#FDE02F;stop-opacity:1;" offset="0%" />
      <stop style="stop-color:#F7B209;stop-opacity:1;" offset="100%" />
    </linearGradient>
  </defs>
  <g id="color">
    <path fill="#d0cfce" stroke="none" stroke-linejoin="round" stroke-miterlimit="10" stroke-width="2" d="M59.0349,60H12.9651 C12.4343,60,12,59.5657,12,59.0349V12.9651C12,12.4343,12.4343,12,12.9651,12h46.0698C59.5657,12,60,12.4343,60,12.9651v46.0698 C60,59.5657,59.5657,60,59.0349,60z"/>
  </g>
  <g id="hair"/>
  <g id="skin"/>
  <g id="skin-shadow"/>
  <g id="line">
    <path fill="none" stroke="#000000" stroke-linejoin="round" stroke-miterlimit="10" stroke-width="2" d="M59.0349,60H12.9651 C12.4343,60,12,59.5657,12,59.0349V12.9651C12,12.4343,12.4343,12,12.9651,12h46.0698C59.5657,12,60,12.4343,60,12.9651v46.0698 C60,59.5657,59.5657,60,59.0349,60z"/>
    <line x1="36.5" x2="36.5" y1="31.5" y2="46.5" fill="none" stroke="#000000" stroke-linecap="round" stroke-miterlimit="10" stroke-width="2"/>
    <circle cx="36.5" cy="26" r="1.5" fill="#000000" stroke="none"/>
  </g>
</svg>
