<svg id="emoji" viewBox="8 8 56 56" xmlns="http://www.w3.org/2000/svg">
<defs>
    <linearGradient id="yellow-gradient" x1="0%" y1="0%" x2="0%" y2="100%">
      <stop style="stop-color:#FDE02F;stop-opacity:1;" offset="0%" />
      <stop style="stop-color:#F7B209;stop-opacity:1;" offset="100%" />
    </linearGradient>
  </defs>
  <g id="color">
    <circle cx="36.0928" cy="58.8419" r="3" fill="#FFFFFF" stroke="none" stroke-linecap="round" stroke-linejoin="round" stroke-miterlimit="10" stroke-width="2"/>
    <path fill="#FFFFFF" stroke="none" stroke-linecap="round" stroke-linejoin="round" stroke-miterlimit="10" stroke-width="2" d="M35.9873,49.3729c-1.3809,0-2.5-1.1191-2.5-2.5V11.6636c0-1.3809,1.1191-2.5,2.5-2.5s2.5,1.1191,2.5,2.5v35.2093 C38.4873,48.2538,37.3682,49.3729,35.9873,49.3729z"/>
  </g>
  <g id="hair"/>
  <g id="skin"/>
  <g id="skin-shadow"/>
  <g id="line">
    <circle cx="36.0928" cy="58.8419" r="3" fill="none" stroke="#000000" stroke-linecap="round" stroke-linejoin="round" stroke-miterlimit="10" stroke-width="2"/>
    <path fill="none" stroke="#000000" stroke-linecap="round" stroke-linejoin="round" stroke-miterlimit="10" stroke-width="2" d="M35.9873,49.3729c-1.3809,0-2.5-1.1191-2.5-2.5V11.6636c0-1.3809,1.1191-2.5,2.5-2.5s2.5,1.1191,2.5,2.5v35.2093 C38.4873,48.2538,37.3682,49.3729,35.9873,49.3729z"/>
  </g>
</svg>
