<svg id="emoji" viewBox="10 10 52 52" xmlns="http://www.w3.org/2000/svg">
<defs>
    <linearGradient id="yellow-gradient" x1="0%" y1="0%" x2="0%" y2="100%">
      <stop style="stop-color:#FDE02F;stop-opacity:1;" offset="0%" />
      <stop style="stop-color:#F7B209;stop-opacity:1;" offset="100%" />
    </linearGradient>
  </defs>
  <g id="color">
    <path fill="#3F3F3F" stroke="none" stroke-linecap="round" stroke-linejoin="round" stroke-miterlimit="10" stroke-width="2" d="M40.1841,60L26.1294,45.1413l3.7285-3.413l7.5107,7.9438V33.1797c0-10.5232-5.7598-15.6386-17.6094-15.6386h-1V12h1	c14.9902,0,23.2461,7.522,23.2461,21.1797v16.4872l7.5078-7.9386l3.7275,3.413L40.1841,60z"/>
  </g>
  <g id="hair"/>
  <g id="skin"/>
  <g id="skin-shadow"/>
  <g id="line">
    <path fill="none" stroke="#000000" stroke-linecap="round" stroke-linejoin="round" stroke-miterlimit="10" stroke-width="2" d="M40.1841,60L26.1294,45.1413l3.7285-3.413l7.5107,7.9438V33.1797c0-10.5232-5.7598-15.6386-17.6094-15.6386h-1V12h1	c14.9902,0,23.2461,7.522,23.2461,21.1797v16.4872l7.5078-7.9386l3.7275,3.413L40.1841,60z"/>
  </g>
</svg>
