<svg id="emoji" viewBox="9 9 54 54" xmlns="http://www.w3.org/2000/svg">
<defs>
    <linearGradient id="yellow-gradient" x1="0%" y1="0%" x2="0%" y2="100%">
      <stop style="stop-color:#FDE02F;stop-opacity:1;" offset="0%" />
      <stop style="stop-color:#F7B209;stop-opacity:1;" offset="100%" />
    </linearGradient>
  </defs>
  <g id="color">
    <path fill="#d0cfce" stroke="none" stroke-linecap="round" stroke-linejoin="round" stroke-miterlimit="10" stroke-width="2" d="M20.9453,45.9794h30.0406c5.5116,0,9.9797-4.4681,9.9797-9.9797v0c0-5.5116-4.4681-9.9797-9.9797-9.9797H20.9453 c-5.5116,0-9.9797,4.4681-9.9797,9.9797v0C10.9656,41.5114,15.4336,45.9794,20.9453,45.9794z"/>
    <circle cx="50.9647" cy="36" r="10.0009" fill="#b1cc33" stroke="none" stroke-linecap="round" stroke-linejoin="round" stroke-miterlimit="10" stroke-width="2"/>
    <path fill="#5c9e31" stroke="none" stroke-linecap="round" stroke-linejoin="round" stroke-miterlimit="10" stroke-width="2" d="M43.9618,43.0717c3.9056,3.9056,10.2378,3.9056,14.1434,0s3.9056-10.2378,0-14.1434"/>
  </g>
  <g id="hair"/>
  <g id="skin"/>
  <g id="skin-shadow"/>
  <g id="line">
    <path fill="none" stroke="#000000" stroke-linecap="round" stroke-linejoin="round" stroke-miterlimit="10" stroke-width="2" d="M20.9453,45.9794h30.0406c5.5116,0,9.9797-4.4681,9.9797-9.9797v0c0-5.5116-4.4681-9.9797-9.9797-9.9797H20.9453 c-5.5116,0-9.9797,4.4681-9.9797,9.9797v0C10.9656,41.5114,15.4336,45.9794,20.9453,45.9794z"/>
    <circle cx="50.9647" cy="36" r="10.0009" fill="none" stroke="#000000" stroke-linecap="round" stroke-linejoin="round" stroke-miterlimit="10" stroke-width="2"/>
    <path fill="none" stroke="#000000" stroke-linecap="round" stroke-linejoin="round" stroke-miterlimit="10" stroke-width="2" d="M43.9618,43.0717c3.9056,3.9056,10.2378,3.9056,14.1434,0s3.9056-10.2378,0-14.1434"/>
  </g>
</svg>
