<svg id="emoji" viewBox="9 9 54 54" xmlns="http://www.w3.org/2000/svg">
<defs>
    <linearGradient id="yellow-gradient" x1="0%" y1="0%" x2="0%" y2="100%">
      <stop style="stop-color:#FDE02F;stop-opacity:1;" offset="0%" />
      <stop style="stop-color:#F7B209;stop-opacity:1;" offset="100%" />
    </linearGradient>
  </defs>
  <g id="color">
    <polyline fill="url(#yellow-gradient)" stroke="none" stroke-linecap="round" stroke-linejoin="round" stroke-miterlimit="10" stroke-width="2" points="36,10.9792 11,10.9792 11,16.0207 31.5,34.25 31.5,56.021 40.5,60.9792 40.5,34.25 61,16.0208 61,10.9792 36,10.9792"/>
    <polygon fill="#F1B31C" stroke="none" points="36,57.1932 36,57.1932 39.2683,58.875 39.2683,33.9081 59.7683,15.5833 59.7683,12.1715 49.5183,12.1715 49.5183,16.0254 36.0183,32.8581"/>
  </g>
  <g id="hair"/>
  <g id="skin"/>
  <g id="skin-shadow"/>
  <g id="line">
    <polyline fill="none" stroke="#000000" stroke-linecap="round" stroke-linejoin="round" stroke-miterlimit="10" stroke-width="2" points="36,10.9792 11,10.9792 11,16.0207 31.5,34.25 31.5,56.021 40.5,60.9792 40.5,34.25 61,16.0208 61,10.9792 36,10.9792"/>
  </g>
</svg>
